<svg height="900" viewBox="0 0 1282 900" width="1282" xmlns="http://www.w3.org/2000/svg"><g fill="#d0d7e4" fill-rule="evenodd"><path d="m32 200h413v1h-413zm-10 138h53v1h-53z" opacity=".5"/><path d="m152 580h579v1h-579z" opacity=".34"/><path d="m152 760h359v1h-359zm570 0h558v1h-558z" opacity=".5"/><path d="m801 580h479v1h-479z" opacity=".3"/><path d="m709 338h233v1h-233zm460 0h93v1h-93z" opacity=".5"/><path d="m574 200h706v1h-706z" opacity=".3"/><path d="m220 60h1v220h-1z" opacity=".23"/><path d="m220 530h1v190h-1zm-220-390h1v720h-1z" opacity=".4"/><path d="m510 170h1v80h-1zm0 430h1v300h-1z"/><path d="m510-30h1v150h-1z" opacity=".4"/><path d="m881 130h1v690h-1zm400 160h1v320h-1zm0 500h1v110h-1z"/></g></svg>